<?xml version="1.0" encoding="iso-8859-1"?>
<!-- Generator: Adobe Illustrator 19.0.0, SVG Export Plug-In . SVG Version: 6.00 Build 0)  -->
<svg version="1.1" id="Layer_1" xmlns="http://www.w3.org/2000/svg" xmlns:xlink="http://www.w3.org/1999/xlink" x="0px" y="0px"
	 viewBox="0 0 496 496" style="enable-background:new 0 0 496 496;" xml:space="preserve">
<rect y="248" style="fill:#D3D3D3;" width="168" height="160"/>
<polyline style="fill:#BCBCBC;" points="0,248 168,248 168,408 "/>
<polygon style="fill:#FFCD50;" points="168,88 168,245.6 168,250.4 168,408 328,408 328,250.4 328,245.6 328,88 "/>
<polyline style="fill:#F4B831;" points="328,408 328,250.4 328,245.6 328,88 168,88 168,245.6 168,248 "/>
<rect x="328" y="248" style="fill:#9A8B9E;" width="168" height="160"/>
<polyline style="fill:#86748C;" points="328,248 496,248 496,408 "/>
<path style="fill:#617270;" d="M235.2,150.4L235.2,150.4l-21.6,9.6l-4-20l29.6-13.6h21.6v112h-25.6L235.2,150.4L235.2,150.4z"/>
<g>
	<path style="fill:#FFFFFF;" d="M50.4,372.8V360l11.2-10.4C80.8,332,90.4,322.4,90.4,312c0-7.2-4-12.8-14.4-12.8
		c-8,0-14.4,4-19.2,7.2l-5.6-15.2c6.4-4.8,16.8-8.8,28.8-8.8c20,0,31.2,12,31.2,28c0,15.2-10.4,26.4-23.2,38.4l-8,7.2l0,0h33.6v16.8
		L50.4,372.8L50.4,372.8z"/>
	<path style="fill:#FFFFFF;" d="M387.2,352c4,1.6,12,5.6,20.8,5.6c10.4,0,16-4.8,16-12c0-8.8-8.8-12.8-17.6-12.8h-8.8v-15.2h8
		c7.2,0,16-2.4,16-10.4c0-5.6-4-9.6-12.8-9.6c-7.2,0-15.2,3.2-18.4,5.6l-4-15.2c5.6-3.2,16-6.4,27.2-6.4c19.2,0,29.6,9.6,29.6,22.4
		c0,9.6-5.6,16.8-16,20.8l0,0c10.4,1.6,19.2,9.6,19.2,21.6c0,16-13.6,27.2-36,27.2c-11.2,0-20.8-3.2-26.4-6.4L387.2,352z"/>
</g>
<g>
</g>
<g>
</g>
<g>
</g>
<g>
</g>
<g>
</g>
<g>
</g>
<g>
</g>
<g>
</g>
<g>
</g>
<g>
</g>
<g>
</g>
<g>
</g>
<g>
</g>
<g>
</g>
<g>
</g>
</svg>
